<svg width="437" height="174" viewBox="0 0 437 174" fill="none" xmlns="http://www.w3.org/2000/svg">
<path d="M165.14 171.36C137.29 171.36 114.63 148.7 114.63 120.85C114.63 93 137.29 70.34 165.14 70.34C192.99 70.34 215.65 93 215.65 120.85C215.65 148.7 192.99 171.36 165.14 171.36ZM165.14 81.83C143.63 81.83 126.13 99.33 126.13 120.84C126.13 142.35 143.63 159.85 165.14 159.85C186.65 159.85 204.15 142.35 204.15 120.84C204.15 99.33 186.65 81.83 165.14 81.83Z" fill="#B7E400"/>
<path d="M24.6501 118.96C21.5001 118.96 18.8401 116.71 18.3101 113.6L0.380068 8.18C0.0900678 6.48 0.480074 4.78 1.48007 3.38C2.48007 1.98 3.96007 1.05 5.65007 0.76C9.15007 0.17 12.4801 2.53 13.0801 6.03L31.0001 111.44C31.2901 113.14 30.9001 114.84 29.9001 116.24C28.9001 117.64 27.4201 118.57 25.7301 118.86C25.3801 118.92 25.0201 118.96 24.6501 118.96Z" fill="#B7E400"/>
<path d="M54.6999 70.33C44.4499 70.33 34.9199 73.4 26.9499 78.67L29.1199 91.43C35.9699 85.46 44.9199 81.83 54.6999 81.83C76.2099 81.83 93.7099 99.33 93.7099 120.84C93.7099 142.35 76.2099 159.85 54.6999 159.85C33.1899 159.85 15.6899 142.35 15.6899 120.84C15.6899 117.97 16.0099 115.18 16.5999 112.49L13.1399 92.18C7.49994 100.33 4.18994 110.21 4.18994 120.85C4.18994 148.7 26.8499 171.36 54.6999 171.36C82.5499 171.36 105.21 148.7 105.21 120.85C105.21 93 82.5599 70.33 54.6999 70.33Z" fill="#B7E400"/>
<path d="M51.9401 150.33C55.7398 150.33 58.8201 147.25 58.8201 143.45C58.8201 139.65 55.7398 136.57 51.9401 136.57C48.1403 136.57 45.0601 139.65 45.0601 143.45C45.0601 147.25 48.1403 150.33 51.9401 150.33Z" fill="#1CD8D2"/>
<path d="M73.4303 142.32C77.23 142.32 80.3103 139.24 80.3103 135.44C80.3103 131.64 77.23 128.56 73.4303 128.56C69.6306 128.56 66.5503 131.64 66.5503 135.44C66.5503 139.24 69.6306 142.32 73.4303 142.32Z" fill="#1CD8D2"/>
<path d="M56.5304 127.57C60.3301 127.57 63.4104 124.49 63.4104 120.69C63.4104 116.89 60.3301 113.81 56.5304 113.81C52.7307 113.81 49.6504 116.89 49.6504 120.69C49.6504 124.49 52.7307 127.57 56.5304 127.57Z" fill="#1CD8D2"/>
<path d="M35.1803 134.6C38.98 134.6 42.0603 131.52 42.0603 127.72C42.0603 123.92 38.98 120.84 35.1803 120.84C31.3806 120.84 28.3003 123.92 28.3003 127.72C28.3003 131.52 31.3806 134.6 35.1803 134.6Z" fill="#1CD8D2"/>
<path d="M77.8302 120.52C81.6299 120.52 84.7102 117.44 84.7102 113.64C84.7102 109.84 81.6299 106.76 77.8302 106.76C74.0305 106.76 70.9502 109.84 70.9502 113.64C70.9502 117.44 74.0305 120.52 77.8302 120.52Z" fill="#1CD8D2"/>
<path d="M61.1305 104.81C64.9302 104.81 68.0105 101.73 68.0105 97.93C68.0105 94.1303 64.9302 91.05 61.1305 91.05C57.3308 91.05 54.2505 94.1303 54.2505 97.93C54.2505 101.73 57.3308 104.81 61.1305 104.81Z" fill="#1CD8D2"/>
<path d="M39.5704 112.8C43.3702 112.8 46.4504 109.72 46.4504 105.92C46.4504 102.12 43.3702 99.04 39.5704 99.04C35.7707 99.04 32.6904 102.12 32.6904 105.92C32.6904 109.72 35.7707 112.8 39.5704 112.8Z" fill="#1CD8D2"/>
<path d="M245.62 118.96C242.47 118.96 239.81 116.71 239.28 113.6L221.35 8.18C221.06 6.48 221.45 4.78 222.45 3.38C223.45 1.98 224.93 1.05 226.62 0.76C230.12 0.17 233.45 2.53 234.05 6.03L251.98 111.45C252.27 113.15 251.88 114.85 250.88 116.25C249.88 117.65 248.4 118.58 246.71 118.87C246.36 118.92 245.99 118.96 245.62 118.96Z" fill="#B7E400"/>
<path d="M275.67 70.33C265.42 70.33 255.89 73.4 247.92 78.67L250.09 91.43C256.94 85.46 265.89 81.83 275.67 81.83C297.18 81.83 314.68 99.33 314.68 120.84C314.68 142.35 297.18 159.85 275.67 159.85C254.16 159.85 236.66 142.35 236.66 120.84C236.66 117.97 236.98 115.18 237.57 112.49L234.11 92.18C228.47 100.33 225.16 110.21 225.16 120.85C225.16 148.7 247.82 171.36 275.67 171.36C303.52 171.36 326.18 148.7 326.18 120.85C326.18 93 303.53 70.33 275.67 70.33Z" fill="#B7E400"/>
<path d="M272.909 150.33C276.709 150.33 279.789 147.25 279.789 143.45C279.789 139.65 276.709 136.57 272.909 136.57C269.11 136.57 266.029 139.65 266.029 143.45C266.029 147.25 269.11 150.33 272.909 150.33Z" fill="#1CD8D2"/>
<path d="M294.4 142.32C298.199 142.32 301.28 139.24 301.28 135.44C301.28 131.64 298.199 128.56 294.4 128.56C290.6 128.56 287.52 131.64 287.52 135.44C287.52 139.24 290.6 142.32 294.4 142.32Z" fill="#1CD8D2"/>
<path d="M277.509 127.57C281.309 127.57 284.389 124.49 284.389 120.69C284.389 116.89 281.309 113.81 277.509 113.81C273.71 113.81 270.629 116.89 270.629 120.69C270.629 124.49 273.71 127.57 277.509 127.57Z" fill="#1CD8D2"/>
<path d="M256.15 134.6C259.949 134.6 263.03 131.52 263.03 127.72C263.03 123.92 259.949 120.84 256.15 120.84C252.35 120.84 249.27 123.92 249.27 127.72C249.27 131.52 252.35 134.6 256.15 134.6Z" fill="#1CD8D2"/>
<path d="M298.799 120.52C302.599 120.52 305.679 117.44 305.679 113.64C305.679 109.84 302.599 106.76 298.799 106.76C295 106.76 291.919 109.84 291.919 113.64C291.919 117.44 295 120.52 298.799 120.52Z" fill="#1CD8D2"/>
<path d="M282.1 104.81C285.899 104.81 288.98 101.73 288.98 97.93C288.98 94.1303 285.899 91.05 282.1 91.05C278.3 91.05 275.22 94.1303 275.22 97.93C275.22 101.73 278.3 104.81 282.1 104.81Z" fill="#1CD8D2"/>
<path d="M260.54 112.8C264.339 112.8 267.42 109.72 267.42 105.92C267.42 102.12 264.339 99.04 260.54 99.04C256.74 99.04 253.66 102.12 253.66 105.92C253.66 109.72 256.74 112.8 260.54 112.8Z" fill="#1CD8D2"/>
<path d="M416.16 122.63C419.31 122.63 421.97 124.88 422.5 127.99L428.92 165.88C429.21 167.58 428.82 169.28 427.82 170.68C426.82 172.08 425.34 173.01 423.65 173.3C420.15 173.89 416.82 171.53 416.22 168.03L409.8 130.14C409.51 128.44 409.9 126.74 410.9 125.34C411.9 123.94 413.38 123.01 415.07 122.72C415.43 122.66 415.79 122.63 416.16 122.63Z" fill="#B7E400"/>
<path d="M386.11 171.25C396.36 171.25 405.89 168.18 413.86 162.91L411.69 150.15C404.84 156.12 395.89 159.75 386.11 159.75C364.6 159.75 347.1 142.25 347.1 120.74C347.1 99.23 364.6 81.73 386.11 81.73C407.62 81.73 425.12 99.23 425.12 120.74C425.12 123.61 424.8 126.4 424.21 129.09L427.67 149.4C433.31 141.25 436.62 131.37 436.62 120.73C436.62 92.88 413.96 70.22 386.11 70.22C358.26 70.22 335.6 92.88 335.6 120.73C335.6 148.58 358.25 171.25 386.11 171.25Z" fill="#B7E400"/>
</svg>
