<?xml version="1.0" standalone="no"?>
<!DOCTYPE svg PUBLIC "-//W3C//DTD SVG 20010904//EN"
 "http://www.w3.org/TR/2001/REC-SVG-20010904/DTD/svg10.dtd">
<svg version="1.0" xmlns="http://www.w3.org/2000/svg"
 width="750.000000pt" height="250.000000pt" viewBox="0 0 750.000000 250.000000"
 preserveAspectRatio="xMidYMid meet">

<g transform="translate(0.000000,250.000000) scale(0.100000,-0.100000)"
fill="#000000" stroke="none">
<path d="M608 2280 c-22 -12 -48 -38 -63 -63 -23 -40 -25 -54 -25 -158 l0
-114 68 -41 c194 -118 202 -119 202 -15 0 38 4 72 9 75 5 3 48 -18 97 -47 134
-80 262 -155 432 -252 83 -48 152 -90 152 -94 -1 -8 -646 -382 -671 -388 -18
-5 -19 1 -19 91 0 110 1 111 75 69 l48 -26 61 32 c100 53 181 107 184 123 4
20 -10 30 -168 122 -343 201 -427 247 -445 249 -20 2 -20 -5 -23 -564 -2 -480
0 -568 12 -572 8 -3 76 31 152 75 425 246 672 389 774 449 63 37 159 92 212
123 66 39 106 69 127 98 29 39 31 48 31 124 l0 81 -42 45 c-25 25 -95 75 -163
115 -66 38 -221 128 -345 200 -124 72 -246 143 -271 156 -25 14 -83 48 -129
76 -81 50 -85 51 -159 51 -56 -1 -86 -6 -113 -20z"/>
<path d="M3220 1810 c-29 -29 -27 -94 5 -125 50 -51 125 -13 125 63 0 71 -82
110 -130 62z"/>
<path d="M2192 1229 l3 -574 245 0 c276 1 325 9 415 70 88 60 124 135 125 256
0 134 -63 219 -192 257 -32 9 -58 20 -58 23 0 4 15 10 34 13 56 11 120 60 151
118 58 106 26 272 -63 333 -83 57 -145 68 -415 73 l-247 4 2 -573z m479 441
c101 -26 151 -106 131 -212 -13 -65 -36 -96 -90 -121 -42 -19 -65 -22 -217
-22 l-170 0 -3 175 c-1 96 0 181 3 189 5 11 31 13 153 8 81 -3 168 -10 193
-17z m39 -494 c88 -33 131 -98 129 -196 -1 -88 -39 -147 -117 -183 -41 -19
-68 -22 -224 -25 l-178 -4 0 210 c0 115 3 212 8 216 14 15 333 0 382 -18z"/>
<path d="M3675 1698 c-3 -7 -15 -49 -28 -92 l-24 -79 -61 -25 c-58 -24 -62
-27 -62 -59 l0 -33 59 0 59 0 4 -297 c4 -335 8 -356 81 -420 48 -42 104 -57
197 -50 106 7 110 10 110 66 l0 48 -78 -5 c-95 -5 -131 9 -158 65 -17 34 -19
68 -22 316 l-4 277 126 0 126 0 0 50 0 49 -122 3 -123 3 -3 98 -3 97 -35 0
c-19 0 -37 -6 -39 -12z"/>
<path d="M6649 1622 l-25 -87 -62 -30 c-57 -27 -62 -32 -62 -62 l0 -33 59 0
60 0 3 -302 c3 -303 3 -303 29 -353 18 -36 39 -59 74 -80 46 -28 55 -30 150
-30 120 0 135 8 135 70 l0 42 -78 -5 c-92 -5 -132 10 -159 61 -16 28 -18 67
-21 315 l-3 282 125 0 126 0 0 50 0 49 -122 3 -123 3 -3 98 -3 97 -37 0 -37 0
-26 -88z"/>
<path d="M4363 1520 c-240 -50 -306 -374 -103 -512 l25 -17 -33 -26 c-18 -15
-39 -40 -47 -55 -29 -57 -12 -140 36 -173 20 -15 20 -15 -14 -26 -112 -37
-176 -152 -147 -262 15 -57 89 -129 156 -154 64 -23 249 -31 340 -16 133 23
228 82 270 167 23 46 26 64 22 127 -2 57 -9 82 -27 109 -56 82 -132 108 -315
108 -145 0 -200 11 -217 41 -16 31 -1 75 38 110 31 27 41 30 75 25 57 -9 165
11 221 42 123 66 169 208 113 344 -13 32 -21 60 -18 63 3 3 19 5 36 5 17 0 48
3 69 6 35 6 37 9 37 44 l0 38 -167 6 c-93 3 -199 8 -238 10 -38 3 -89 1 -112
-4z m214 -116 c53 -40 67 -70 71 -148 7 -142 -56 -202 -204 -194 -110 5 -164
53 -172 153 -9 112 41 196 125 210 21 4 42 8 47 9 26 6 110 -13 133 -30z m96
-745 c49 -13 71 -48 70 -111 -1 -56 -20 -90 -73 -126 -54 -36 -107 -47 -235
-47 -105 0 -125 3 -162 23 -49 26 -73 65 -73 119 0 58 28 105 80 131 40 20 58
22 200 22 85 0 172 -5 193 -11z"/>
<path d="M5290 1517 c-146 -42 -229 -140 -264 -310 -20 -94 -20 -162 -1 -250
20 -94 51 -153 112 -214 80 -78 136 -97 298 -98 111 0 140 3 198 23 l67 24 0
58 0 59 -54 -19 c-77 -26 -201 -43 -261 -35 -137 17 -235 128 -235 267 l0 38
293 2 292 3 3 44 c5 66 -14 164 -44 231 -31 69 -93 132 -159 161 -57 25 -185
33 -245 16z m185 -116 c70 -31 105 -86 119 -188 l6 -43 -225 0 c-251 0 -235
-6 -211 74 43 143 185 214 311 157z"/>
<path d="M6285 1521 c-55 -14 -92 -40 -147 -101 l-55 -60 -7 46 c-3 26 -6 60
-6 75 0 28 -1 29 -55 29 l-55 0 2 -427 3 -428 60 0 60 0 5 275 c5 252 7 279
26 321 51 109 138 163 253 157 l66 -3 8 53 c5 30 6 56 3 60 -10 10 -127 12
-161 3z"/>
<path d="M3212 1083 l3 -428 60 0 60 0 3 428 2 427 -65 0 -65 0 2 -427z"/>
<path d="M1100 749 c-90 -50 -176 -99 -190 -108 -41 -30 -107 -61 -114 -54 -3
4 -6 37 -6 73 0 103 -6 104 -149 19 l-121 -72 0 -115 c0 -105 2 -119 25 -159
35 -58 85 -83 170 -83 45 0 78 6 103 19 72 37 457 272 464 284 8 14 -2 269
-11 279 -4 4 -81 -33 -171 -83z"/>
</g>
</svg>
