<svg width="740" height="380" viewBox="0 0 740 380" fill="none" xmlns="http://www.w3.org/2000/svg">
<path d="M67.7418 189.134L44.9214 149.606C44.5062 148.908 43.4931 148.908 43.0945 149.606L20.274 189.134C19.9087 189.766 19.9087 190.53 20.274 191.144L43.0945 230.673C43.5097 231.37 44.5228 231.37 44.9214 230.673L67.7418 191.144C68.1072 190.53 68.1072 189.766 67.7418 189.134Z" fill="url(#paint0_linear_301_14)"/>
<path d="M197.24 189.134L153.875 114.013C153.509 113.382 152.845 113 152.131 113H65.3835C64.6693 113 63.9884 113.382 63.6396 114.013L56.448 126.47L92.6218 189.134C92.9872 189.766 92.9872 190.53 92.6218 191.144L56.448 253.809L63.6396 266.265C64.005 266.897 64.6693 267.279 65.3835 267.279H152.131C152.845 267.279 153.526 266.897 153.875 266.265L197.24 191.161C197.606 190.53 197.606 189.766 197.24 189.134ZM172.36 191.161L141.435 244.74C141.069 245.372 140.405 245.754 139.691 245.754H89.6655C88.1042 245.754 87.1409 244.076 87.9215 242.731L117.668 191.161C118.033 190.53 118.033 189.766 117.668 189.151L87.9049 137.598C87.1243 136.252 88.1043 134.575 89.6489 134.575H139.674C140.389 134.575 141.07 134.957 141.418 135.588L172.344 189.168C172.726 189.766 172.726 190.53 172.36 191.161Z" fill="url(#paint1_linear_301_14)"/>
<path d="M345.29 196.874C345.29 226.454 325.526 240.356 303.038 240.356H239.925V171.147C239.925 161.331 247.88 153.376 257.696 153.376H303.054C325.526 153.392 345.29 167.311 345.29 196.874ZM322.918 196.874C322.918 175.748 311.492 172.144 294.584 172.144H262.28V221.588H294.584C311.492 221.605 322.918 218 322.918 196.874Z" fill="black"/>
<path d="M375.718 171.147V188.786H445.292V204.946H375.718V222.584H445.292V240.356H353.346V171.147C353.346 161.331 361.301 153.376 371.117 153.376H445.292V171.147H375.718Z" fill="black"/>
<path d="M499.586 196.874L450.623 153.392H477.978C480.203 153.392 482.346 154.206 484.007 155.701L514.733 183.222L545.326 155.718C546.987 154.223 549.13 153.409 551.372 153.409H578.843L529.88 196.891L578.843 240.372H551.372C549.146 240.372 546.987 239.542 545.326 238.064L514.733 210.56L484.007 238.08C482.346 239.559 480.203 240.389 477.978 240.389H450.623L499.586 196.874Z" fill="black"/>
<path d="M605.815 240.356H583.443V171.147C583.443 161.331 591.399 153.376 601.214 153.376H605.815V240.356Z" fill="black"/>
<path d="M701.249 172.144H677.764V240.356H655.392V172.144H613.139C613.139 161.78 621.543 153.376 631.907 153.376H720C720 163.756 711.596 172.144 701.249 172.144Z" fill="black"/>
<defs>
<linearGradient id="paint0_linear_301_14" x1="128.848" y1="74.6514" x2="-3.73254" y2="255.14" gradientUnits="userSpaceOnUse">
<stop offset="0.00288617" stop-color="#9057FF"/>
<stop offset="0.5902" stop-color="#0BAFFF"/>
<stop offset="0.9766" stop-color="#0BFFFF"/>
</linearGradient>
<linearGradient id="paint1_linear_301_14" x1="170.905" y1="105.545" x2="38.3235" y2="286.033" gradientUnits="userSpaceOnUse">
<stop offset="0.00288617" stop-color="#9057FF"/>
<stop offset="0.5902" stop-color="#0BAFFF"/>
<stop offset="0.9766" stop-color="#0BFFFF"/>
</linearGradient>
</defs>
</svg>
