<svg id="Layer_1" data-name="Layer 1" xmlns="http://www.w3.org/2000/svg" xmlns:xlink="http://www.w3.org/1999/xlink" viewBox="0 0 299.31 65.97"><defs><style>.cls-1{fill:url(#linear-gradient);}.cls-2{fill:url(#linear-gradient-2);}.cls-3{fill:#f5f5f5;}</style><linearGradient id="linear-gradient" x1="46.54" y1="-16.4" x2="-10.15" y2="60.77" gradientUnits="userSpaceOnUse"><stop offset="0" stop-color="#9057ff"/><stop offset="0.59" stop-color="#0bafff"/><stop offset="0.98" stop-color="#0bffff"/></linearGradient><linearGradient id="linear-gradient-2" x1="64.52" y1="-3.19" x2="7.84" y2="73.98" xlink:href="#linear-gradient"/></defs><path class="cls-1" d="M20.42,32.55l-9.76-16.9a.46.46,0,0,0-.79,0L.12,32.55a.83.83,0,0,0,0,.86L9.87,50.32a.46.46,0,0,0,.79,0l9.76-16.91A.88.88,0,0,0,20.42,32.55Z"/><path class="cls-2" d="M75.79,32.55,57.24.43A.85.85,0,0,0,56.5,0H19.41a.85.85,0,0,0-.75.43L15.59,5.76,31.06,32.55a.88.88,0,0,1,0,.86L15.59,60.21l3.07,5.32a.86.86,0,0,0,.75.44H56.5a.86.86,0,0,0,.74-.44L75.79,33.41A.88.88,0,0,0,75.79,32.55Zm-10.64.86L51.92,56.32a.84.84,0,0,1-.74.43H29.78A.86.86,0,0,1,29,55.46L41.77,33.41a.88.88,0,0,0,0-.86L29,10.51a.87.87,0,0,1,.74-1.3h21.4a.86.86,0,0,1,.74.43L65.15,32.55A.88.88,0,0,1,65.15,33.41Z"/><path class="cls-3" d="M139.08,35.86c0,12.64-8.44,18.59-18.06,18.59H94V24.86a7.6,7.6,0,0,1,7.6-7.6H121C130.64,17.26,139.08,23.21,139.08,35.86Zm-9.56,0c0-9-4.89-10.57-12.11-10.57H103.6V46.43h13.81C124.63,46.43,129.52,44.89,129.52,35.86Z"/><path class="cls-3" d="M152.1,24.86v7.55h29.75v6.9H152.1v7.55h29.75v7.59H142.53V24.86a7.61,7.61,0,0,1,7.6-7.6h31.72v7.6Z"/><path class="cls-3" d="M205.06,35.86l-20.93-18.6h11.7a3.85,3.85,0,0,1,2.58,1L211.54,30l13.09-11.76a3.9,3.9,0,0,1,2.58-1H239L218,35.86,239,54.45H227.21a3.85,3.85,0,0,1-2.58-1L211.54,41.7,198.41,53.47a3.89,3.89,0,0,1-2.58,1h-11.7Z"/><path class="cls-3" d="M250.48,54.45h-9.56V24.86a7.6,7.6,0,0,1,7.6-7.6h2Z"/><path class="cls-3" d="M291.28,25.29h-10V54.45h-9.56V25.29H253.62a8,8,0,0,1,8-8h37.67A8,8,0,0,1,291.28,25.29Z"/></svg>