<?xml version="1.0" standalone="no"?>
<!DOCTYPE svg PUBLIC "-//W3C//DTD SVG 20010904//EN"
 "http://www.w3.org/TR/2001/REC-SVG-20010904/DTD/svg10.dtd">
<svg version="1.0" xmlns="http://www.w3.org/2000/svg"
 width="420.000000pt" height="92.000000pt" viewBox="0 0 420.000000 92.000000"
 preserveAspectRatio="xMidYMid meet">

<g transform="translate(0.000000,92.000000) scale(0.100000,-0.100000)"
fill="#000000" stroke="none">
<path d="M400 911 c-55 -18 -90 -46 -221 -173 -154 -151 -173 -182 -173 -278
0 -43 6 -79 18 -105 23 -48 273 -296 331 -328 56 -30 164 -30 220 0 62 33 320
300 335 347 16 49 16 123 0 172 -15 48 -274 315 -334 346 -43 22 -136 32 -176
19z m138 -66 c23 -10 88 -67 173 -155 116 -119 138 -147 148 -186 12 -46 2
-113 -21 -141 -7 -8 -41 21 -121 104 -134 138 -165 157 -253 151 -50 -3 -72
-10 -105 -33 -66 -47 -70 -61 -29 -94 l34 -29 35 29 c28 22 46 29 81 29 44 0
46 -1 163 -121 l119 -122 -79 -79 c-99 -100 -137 -126 -196 -134 -75 -11 -119
13 -222 116 l-89 90 32 33 32 33 -35 34 -35 34 -35 -34 -34 -33 -21 44 c-45
100 -25 145 137 311 163 167 220 194 321 153z"/>
<path d="M1130 600 l0 -40 55 0 55 0 0 -140 0 -140 50 0 50 0 0 140 0 140 55
0 55 0 0 40 0 40 -160 0 -160 0 0 -40z"/>
<path d="M1490 460 l0 -180 50 0 50 0 0 50 c0 47 2 50 25 50 19 0 34 -13 61
-50 35 -48 38 -50 85 -50 27 0 49 2 49 5 0 3 -15 28 -34 56 l-33 50 28 28 c51
51 51 126 0 175 -36 35 -82 45 -193 46 l-88 0 0 -180z m200 82 c18 -15 22 -25
16 -46 -7 -29 -39 -46 -87 -46 -29 0 -29 1 -29 55 l0 55 39 0 c23 0 48 -8 61
-18z"/>
<path d="M1861 513 c4 -146 19 -185 79 -215 46 -23 134 -23 180 0 60 30 75 69
79 215 l3 127 -51 0 -51 0 0 -109 c0 -125 -9 -158 -45 -167 -74 -18 -95 19
-95 172 l0 104 -51 0 -51 0 3 -127z"/>
<path d="M2314 626 c-41 -18 -64 -52 -64 -96 0 -57 22 -77 115 -105 88 -27
104 -44 64 -65 -23 -13 -90 -5 -130 16 -25 13 -27 12 -41 -25 -15 -38 -15 -39
11 -51 14 -7 60 -15 102 -18 115 -7 179 33 179 113 0 37 -47 81 -101 95 -80
20 -94 27 -97 43 -7 37 64 44 138 13 11 -5 19 3 28 27 16 45 16 43 -19 56 -44
15 -147 13 -185 -3z"/>
<path d="M2560 600 l0 -40 55 0 55 0 0 -140 0 -140 50 0 50 0 0 140 0 140 55
0 55 0 0 40 0 40 -160 0 -160 0 0 -40z"/>
<path d="M3064 627 c-2 -7 -3 -87 -2 -177 l3 -165 143 -3 142 -3 0 41 0 40
-96 0 -95 0 3 33 3 32 78 3 77 3 0 34 0 35 -80 0 -80 0 0 30 0 30 90 0 90 0 0
40 0 40 -135 0 c-101 0 -137 -3 -141 -13z"/>
<path d="M3363 628 c3 -7 38 -89 77 -181 l73 -168 49 3 49 3 69 159 c94 215
91 196 33 196 l-49 0 -48 -115 c-27 -63 -50 -115 -51 -115 -2 0 -24 52 -50
115 l-48 115 -54 0 c-40 0 -54 -3 -50 -12z"/>
<path d="M3790 460 l0 -180 45 0 44 0 3 87 3 88 42 -68 c57 -90 75 -90 127 -2
21 36 42 68 47 71 5 3 9 -34 9 -85 l0 -91 45 0 45 0 0 181 0 180 -42 -3 c-43
-3 -43 -4 -102 -100 -32 -54 -63 -95 -67 -92 -5 3 -34 48 -65 99 -56 94 -57
95 -95 95 l-39 0 0 -180z"/>
</g>
</svg>
