<svg id="Layer_1" data-name="Layer 1" xmlns="http://www.w3.org/2000/svg" viewBox="0 0 503.08 200.24"><defs><style>.cls-1{fill:#7b4af4;}</style></defs><path class="cls-1" d="M207.07,51.85a47,47,0,0,1,8.15-14.09l.67-.8-5.57-9.65-1.38,1.5a58.22,58.22,0,0,0-12.76,22.08l-.6,1.94h11.14Z"/><path class="cls-1" d="M210.32,108.94l5.57-9.64-.67-.8a47.32,47.32,0,0,1-8.15-14.09l-.36-1H195.57l.61,1.95A58.22,58.22,0,0,0,209,107.46Z"/><path class="cls-1" d="M259.68,114.77a47.85,47.85,0,0,1-16.28,0l-1-.18-5.57,9.65,2,.45a58.54,58.54,0,0,0,12.75,1.41,57.93,57.93,0,0,0,12.75-1.41l2-.45-5.57-9.65Z"/><path class="cls-1" d="M296,84.4a47.23,47.23,0,0,1-8.15,14.09l-.67.8,5.57,9.65,1.38-1.5A58.22,58.22,0,0,0,306.9,85.36l.6-2H296.36Z"/><path class="cls-1" d="M292.76,27.31,287.19,37l.67.8A47.23,47.23,0,0,1,296,51.84l.36,1h11.15l-.61-2a58.22,58.22,0,0,0-12.77-22.08Z"/><path class="cls-1" d="M243.4,21.49a47.85,47.85,0,0,1,16.28,0l1,.18L266.28,12l-2-.45a58.7,58.7,0,0,0-25.51,0l-2,.45,5.57,9.66Z"/><path class="cls-1" d="M292.93,57.44a42.7,42.7,0,0,0-11.45-19.81L297,10.68,278.54,0,263,26.94a43,43,0,0,0-22.88,0L224.55,0l-18.5,10.68,19.37,33.55a35.41,35.41,0,0,1,61.33,20.08H269.46a18.31,18.31,0,0,0-35.82,0h-9l-6.87-6.87H179V78.81h31.11A42.7,42.7,0,0,0,221.6,98.62L206,125.57l18.5,10.68,15.56-26.94a43,43,0,0,0,22.88,0l15.55,26.94L297,125.57,277.66,92a35.41,35.41,0,0,1-61.33-20.08h17.29a18.31,18.31,0,0,0,35.82,0h9l6.87,6.87H324V57.44Z"/><polygon class="cls-1" points="27.37 170.44 11.62 170.44 11.62 154.57 0 154.57 0 200.23 11.62 200.23 11.69 175.64 17.26 180.45 27.37 180.45 27.37 200.23 38.99 200.23 38.99 154.57 27.37 154.57 27.37 170.44"/><polygon class="cls-1" points="87.49 154.57 87.49 200.24 99.13 200.24 99.13 164.58 114.86 164.58 114.86 170.45 103.8 170.45 103.8 177.7 114.86 187.24 114.86 200.24 126.48 200.24 126.48 187.28 118.58 180.45 126.48 180.45 126.48 163.54 116.13 154.57 87.49 154.57"/><path class="cls-1" d="M133.51,154.57v36.69l10.35,9H172.5V163.54l-10.35-9Zm27.31,35.66H145.14l.07-25.65H160.9Z"/><polygon class="cls-1" points="407.75 182.89 387.35 154.57 375.73 154.57 375.73 200.23 387.35 200.23 387.35 171.91 407.75 200.23 419.37 200.23 419.37 154.57 407.75 154.57 407.75 182.89"/><polygon class="cls-1" points="220.03 154.57 220.03 166.81 247.11 190.22 231.65 190.22 231.65 183.99 220.03 183.99 220.03 191.26 230.38 200.23 259.04 200.23 259.04 187.99 231.96 164.57 247.42 164.57 247.42 170.81 259.04 170.81 259.04 163.54 248.69 154.57 220.03 154.57"/><polygon class="cls-1" points="503.08 154.57 425.29 154.57 425.29 200.23 436.91 200.23 436.91 175.59 442.55 180.45 455.15 180.45 455.15 170.44 436.91 170.44 436.91 164.58 477.79 164.58 477.77 200.23 489.39 200.23 489.41 169.54 483.72 164.58 503.08 164.58 503.08 154.57"/><polygon class="cls-1" points="80.44 164.58 80.48 154.57 46.03 154.57 46.03 191.26 56.38 200.23 80.43 200.23 80.46 190.23 57.65 190.23 57.65 175.59 63.29 180.45 75.89 180.45 75.89 170.44 57.65 170.44 57.65 164.58 80.44 164.58"/><polygon class="cls-1" points="213.96 164.58 214 154.57 179.55 154.57 179.55 191.26 189.9 200.23 213.94 200.23 213.98 190.23 191.17 190.23 191.17 175.59 196.81 180.45 209.41 180.45 209.41 170.44 191.17 170.44 191.17 164.58 213.96 164.58"/><path class="cls-1" d="M278,154.57v36.69l10.35,9H317V163.55l-10.35-9Zm27.38,35.66H289.61V164.58h15.75Z"/><polygon class="cls-1" points="322.32 200.23 333.95 200.23 333.95 175.59 339.6 180.45 352.19 180.45 352.19 170.44 333.95 170.44 333.95 164.58 356.79 164.58 356.79 154.57 322.32 154.57 322.32 200.23"/></svg>